<svg xmlns="http://www.w3.org/2000/svg" xmlns:xlink="http://www.w3.org/1999/xlink" viewBox="0 0 225.3 225.7"><style>.st7{fill:#fff}</style><defs><path id="SVGID_1_" d="M0-.3h225v225H0z"/></defs><clipPath id="SVGID_2_"><use xlink:href="#SVGID_1_" overflow="visible"/></clipPath><g clip-path="url(#SVGID_2_)"><linearGradient id="SVGID_3_" gradientUnits="userSpaceOnUse" x1="-3029.438" y1="995.263" x2="-2510.938" y2="622.113" gradientTransform="matrix(-1 0 0 1 -2739.253 -544)"><stop offset="0" stop-color="#a6327d"/><stop offset="1" stop-color="#ed1c24"/></linearGradient><path d="M50 179.7c87-1.4 183.1 22.9 183.1 22.9 26 151.4 4.5 326 4.5 326-67.4 17.7-143.4-10.8-143.4-10.8C83 454.4 30.7 276.4 30.7 276.4c-42.5-5.3-77.6-17.5-106.4-33.8 22-25.5 32.4-58 36.9-77.2C-8 175 23.1 180.1 50 179.7z" fill="url(#SVGID_3_)"/><linearGradient id="SVGID_4_" gradientUnits="userSpaceOnUse" x1="-2700.553" y1="687.692" x2="-2532.153" y2="687.692" gradientTransform="matrix(-1 0 0 1 -2739.253 -544)"><stop offset="0" stop-color="#f7b777"/><stop offset="1" stop-color="#f47960"/></linearGradient><path d="M-207.1 51.5c8.5-10.3 19.4-5.5 19.4-5.5 12.8 54.1 80 98 149 119.4-4.5 19.2-14.9 51.6-36.9 77.1-114.6-64.3-131.5-191-131.5-191z" fill="url(#SVGID_4_)"/><linearGradient id="SVGID_5_" gradientUnits="userSpaceOnUse" x1="-2891.591" y1="717.048" x2="-2821.053" y2="717.048" gradientTransform="matrix(-1 0 0 1 -2739.253 -544)"><stop offset="0" stop-color="#f7b777"/><stop offset="1" stop-color="#f47960"/></linearGradient><path d="M129 142l23.2 54.7c.4.9-.1 2-1.1 2.4-6.3 2.9-29.1 11.1-56.6-3.1-2.7-1.2-4.6-3.7-5.2-6.6L81.8 142H129z" fill="url(#SVGID_5_)"/><linearGradient id="SVGID_6_" gradientUnits="userSpaceOnUse" x1="-8836.608" y1="-2664.497" x2="-8868.088" y2="-2768.307" gradientTransform="scale(-1 1) rotate(-41.8 -803.434 -12747.75)"><stop offset="0" stop-color="#f7b777"/><stop offset="1" stop-color="#f47960"/></linearGradient><path d="M77.9 67.8S47.5 125 51.4 148.2s41.6 21.5 74.5 2.7l23-61.8-71-21.3z" fill="url(#SVGID_6_)"/><linearGradient id="SVGID_7_" gradientUnits="userSpaceOnUse" x1="-8862.316" y1="-2842.456" x2="-8835.986" y2="-2692.276" gradientTransform="scale(-1 1) rotate(-41.8 -803.434 -12747.75)"><stop offset="0" stop-color="#570d09"/><stop offset="1" stop-color="#764432"/></linearGradient><path d="M124.4 120.5c-1.2-.5-1.7-1.9-1.2-3.1.1-.1.1-.2.2-.3 2.4-3.7 7-11.3 8.5-18 0 0 5.5-3.5-13.9-8.1S69.6 79.1 63.6 62.6c-6-16 9.6-56.5 34.4-24.3.8 1 2.3 1.2 3.3.4.2-.1.3-.3.4-.4 4.1-5.3 14.8-16.3 29.6-9.6 13.9 6.3 15.5 16.4 15.3 21.6 0 1.3 1 2.4 2.3 2.4h.5c7-1.3 23.9-2.5 31.8 14.8 6.5 14.3 2.3 22.3-1.6 26.3-.9.9-.9 2.4 0 3.3.3.3.6.5 1 .6 4.6 1.4 10.6 5.3 10 16.2-.8 15-17.6 13.7-22.3 13-.8-.1-1.6.2-2.1.7-4.1 4.5-22.5 23.7-42.4 26-1.3.1-2.5-.8-2.6-2.1 0-.4 0-.7.1-1l8.6-25.1c.4-1.2-.2-2.4-1.3-2.9l-4.2-2z" fill="url(#SVGID_7_)"/><linearGradient id="SVGID_8_" gradientUnits="userSpaceOnUse" x1="-8868.607" y1="-2665.03" x2="-8896.928" y2="-2758.43" gradientTransform="scale(-1 1) rotate(-41.8 -803.434 -12747.75)"><stop offset="0" stop-color="#f7b777"/><stop offset="1" stop-color="#f47960"/></linearGradient><path d="M120.9 124.1s21.7-14.9 23.2-2.3-19.5 18.1-29.9 13.5l6.7-11.2z" fill="url(#SVGID_8_)"/><path class="st7" d="M87 107.1l1.4-7.9 20.2 11.8zm-26.3 21.6l21.6 3.9c3 .5-7.8 14.9-17.9 9 .1 0-5.7-2.1-3.7-12.9z"/><defs><path id="SVGID_9_" d="M87 107.1l1.4-7.9 20.2 11.8z"/></defs><clipPath id="SVGID_10_"><use xlink:href="#SVGID_9_" overflow="visible"/></clipPath><circle cx="88.9" cy="104.8" r="6.5" clip-path="url(#SVGID_10_)" fill="#332323"/><path class="st7" d="M56.5 101.5l1.4-7.8 11.4 10.1z"/><defs><path id="SVGID_11_" d="M56.5 101.5l1.4-7.8 11.4 10.1z"/></defs><clipPath id="SVGID_12_"><use xlink:href="#SVGID_11_" overflow="visible"/></clipPath><circle cx="58.8" cy="99.9" r="6" clip-path="url(#SVGID_12_)" fill="#332323"/><linearGradient id="SVGID_13_" gradientUnits="userSpaceOnUse" x1="210.35" y1="368.998" x2="226.357" y2="368.998" gradientTransform="rotate(10.263 1531.752 -573.953)"><stop offset=".62" stop-color="#f47b61"/><stop offset="1" stop-color="#f47960"/></linearGradient><path fill="url(#SVGID_13_)" d="M65.7 120.5l-1.7-4.4 6.1 1.1 8.8 6.7z"/><linearGradient id="SVGID_14_" gradientUnits="userSpaceOnUse" x1="62.027" y1="644.069" x2="43.697" y2="714.009" gradientTransform="translate(0 -544)"><stop offset="0" stop-color="#ffe81d"/><stop offset=".21" stop-color="#eb8bb5"/><stop offset="1" stop-color="#fff200"/></linearGradient><path d="M52.3 89l24 7s1.3 17.1-16.9 12.1S52.3 89 52.3 89z" fill="url(#SVGID_14_)" stroke="#000" stroke-miterlimit="10"/><linearGradient id="SVGID_15_" gradientUnits="userSpaceOnUse" x1="91.027" y1="652.069" x2="72.697" y2="722.009" gradientTransform="translate(0 -544)"><stop offset="0" stop-color="#ffe81d"/><stop offset=".21" stop-color="#eb8bb5"/><stop offset="1" stop-color="#fff200"/></linearGradient><path d="M81.3 97l24 7s1.3 17.1-16.9 12.1S81.3 97 81.3 97z" fill="url(#SVGID_15_)" stroke="#000" stroke-miterlimit="10"/><path d="M76.3 96l5 1-3.5 7.5-3-1zm29 8l37 11 9 10-7.3 2.2-6.2-6.9-32.5-11.3z"/></g></svg>