<svg xmlns="http://www.w3.org/2000/svg" xmlns:xlink="http://www.w3.org/1999/xlink" viewBox="0 0 225.7 225.7"><style>.st13{fill:#fff}.st18{fill:#332323}</style><defs><path id="SVGID_1_" d="M0 0h225.7v225.7H0z"/></defs><clipPath id="SVGID_2_"><use xlink:href="#SVGID_1_" overflow="visible"/></clipPath><g clip-path="url(#SVGID_2_)"><linearGradient id="SVGID_3_" gradientUnits="userSpaceOnUse" x1="-2914.891" y1="914.899" x2="-3018.411" y2="1309.989" gradientTransform="matrix(-1 0 0 1 -2956.15 -708)"><stop offset="0" stop-color="#ed1c2b"/><stop offset="1" stop-color="#fff200"/></linearGradient><path d="M58.4 183.6S-16 205-71.8 199.1s-70.5-13.9-70.5-13.9-9.7 8-5.4 18.6c80.1 41.3 188.1 30.7 188.1 30.7l18-50.9z" fill="url(#SVGID_3_)"/><linearGradient id="SVGID_4_" gradientUnits="userSpaceOnUse" x1="-3131.452" y1="858.335" x2="-3230.813" y2="1237.524" gradientTransform="matrix(-1 0 0 1 -2956.15 -708)"><stop offset="0" stop-color="#ed1c2b"/><stop offset="1" stop-color="#fff200"/></linearGradient><path d="M264.7 216c-2.4-5.9-19.1-13.9-19.1-13.9s-31.3 51.2-54 46.4-27.2-59.6-50.1-66.9-18.3 45.4-18.3 45.4 27.6 63.1 66.7 59.6 74.8-70.6 74.8-70.6z" fill="url(#SVGID_4_)"/><linearGradient id="SVGID_5_" gradientUnits="userSpaceOnUse" x1="-3023.475" y1="887.718" x2="-3126.455" y2="1280.738" gradientTransform="matrix(-1 0 0 1 -2956.15 -708)"><stop offset="0" stop-color="#ed1c2b"/><stop offset="1" stop-color="#fff200"/></linearGradient><path d="M141.2 181.6s-77-17.1-96 13.7c-24.3 39.2-24 61.7-24 61.7s0 6 18.3 23.2c21.2 47.5 3.2 85.6 3.2 85.6 25 7.5 55.6 5.8 97.4-14.7 0 0-18.8-78.6-4.8-115 3.6-54.5 5.9-54.5 5.9-54.5z" fill="url(#SVGID_5_)"/><linearGradient id="SVGID_6_" gradientUnits="userSpaceOnUse" x1="-334.405" y1="1290.763" x2="-399.855" y2="1443.823" gradientTransform="rotate(-11.579 -6341.836 -1752.604)"><stop offset="0" stop-color="#282b73"/><stop offset="1" stop-color="#0f1128"/></linearGradient><path d="M142.6 120.8s7.6-53.7-36.7-45.2l-9 9.4s-21.9-24.4 2-43.1 57.2-14.2 75.9 19.5 25.5 57.3 10.2 78.4-27 3.2-27 3.2 7-18.2 1-26-13.4 4.6-13.4 4.6l-3-.8z" fill="url(#SVGID_6_)"/><linearGradient id="SVGID_7_" gradientUnits="userSpaceOnUse" x1="-351.164" y1="1328.181" x2="-416.604" y2="1481.242" gradientTransform="rotate(-11.579 -6341.836 -1752.604)"><stop offset="0" stop-color="#282b73"/><stop offset="1" stop-color="#0f1128"/></linearGradient><path d="M133.6 160.8s7.6-53.7-36.7-45.2L88 125s-21.9-24.4 2-43.1 57.2-14.2 75.9 19.5 25.5 57.3 10.2 78.4-27 3.2-27 3.2 7-18.2 1-26-13.4 4.6-13.4 4.6l-3.1-.8z" fill="url(#SVGID_7_)"/><linearGradient id="SVGID_8_" gradientUnits="userSpaceOnUse" x1="-355.274" y1="1368.172" x2="-420.714" y2="1521.232" gradientTransform="rotate(-11.579 -6341.836 -1752.604)"><stop offset="0" stop-color="#282b73"/><stop offset="1" stop-color="#0f1128"/></linearGradient><path d="M137.6 200.8s7.6-53.7-36.7-45.2L92 165s-21.9-24.4 2-43.1 57.2-14.2 75.9 19.5 25.5 57.3 10.2 78.4-27 3.2-27 3.2 7-18.2 1-26-13.4 4.6-13.4 4.6l-3.1-.8z" fill="url(#SVGID_8_)"/><linearGradient id="SVGID_9_" gradientUnits="userSpaceOnUse" x1="-376.697" y1="1378.07" x2="-442.137" y2="1531.13" gradientTransform="rotate(-11.579 -6341.836 -1752.604)"><stop offset="0" stop-color="#282b73"/><stop offset="1" stop-color="#0f1128"/></linearGradient><path d="M118.6 214.8s7.6-53.7-36.7-45.2L73 179s-21.9-24.4 2-43.1 57.2-14.2 75.9 19.5 25.5 57.3 10.2 78.4-27 3.2-27 3.2 7-18.2 1-26-13.4 4.6-13.4 4.6l-3.1-.8z" fill="url(#SVGID_9_)"/><linearGradient id="SVGID_10_" gradientUnits="userSpaceOnUse" x1="555.388" y1="170.838" x2="541.728" y2="83.158" gradientTransform="rotate(13.88 41.396 -1726.85)"><stop offset="0" stop-color="#f7b777"/><stop offset="1" stop-color="#f47960"/></linearGradient><path d="M71.2 132.9c.1 1.9 2.3 46.1 3.2 47.1 8.7 9 23.6 11.5 38.6 5.9l-6.3-51.3-35.5-1.7z" fill="url(#SVGID_10_)"/><linearGradient id="SVGID_11_" gradientUnits="userSpaceOnUse" x1="-451.688" y1="1334.427" x2="-334.858" y2="1413.776" gradientTransform="rotate(-11.579 -6341.836 -1752.604)"><stop offset="0" stop-color="#f7b777"/><stop offset="1" stop-color="#f47960"/></linearGradient><path d="M80.1 53.4s-21.5 14.8-30.6 52.3 6.1 50.8 21.6 49.9 37.9-5.9 57.1-32.8-19.9-87.5-48.1-69.4z" fill="url(#SVGID_11_)"/><linearGradient id="SVGID_12_" gradientUnits="userSpaceOnUse" x1="-365.105" y1="1271.203" x2="-430.555" y2="1424.263" gradientTransform="rotate(-11.579 -6341.836 -1752.604)"><stop offset="0" stop-color="#282b73"/><stop offset="1" stop-color="#0f1128"/></linearGradient><path d="M108.6 107.8s7.6-53.7-36.7-45.2l-9 9.4s-21.9-24.4 2-43.1 57.2-14.2 75.9 19.5 25.5 57.3 10.2 78.4-27 3.2-27 3.2 7-18.2 1-26-13.4 4.6-13.4 4.6l-3-.8z" fill="url(#SVGID_12_)"/><linearGradient id="SVGID_13_" gradientUnits="userSpaceOnUse" x1="-444.688" y1="1324.107" x2="-327.878" y2="1403.447" gradientTransform="rotate(-11.579 -6341.836 -1752.604)"><stop offset="0" stop-color="#f7b777"/><stop offset="1" stop-color="#f47960"/></linearGradient><path d="M114.6 112.3s3.7-27.6 17.8-19.8-4.9 25.8-12.5 31.9l-5.3-12.1z" fill="url(#SVGID_13_)"/><linearGradient id="SVGID_14_" gradientUnits="userSpaceOnUse" x1="105.689" y1="745.949" x2="94.809" y2="799.089" gradientTransform="matrix(.9999 .01152 -.01152 .9999 -6.194 -690.611)"><stop offset="0" stop-color="#282b73"/><stop offset="1" stop-color="#0f1128"/></linearGradient><path d="M62.6 67.6c-5 4.9-7.7 12.4 8 20.2 0 0-1.9-13 8.1-12.9 0 0-6.1 9.9 2.8 20 0 0 10.1-13.7 22.5-2.7 4.6 4.1 7 1.5 8.2-3.5 3.3-14.2-7.7-27.8-22.3-28.1-4.4-.1-8.8.1-13.2.6-5.3.5-10.3 2.7-14.1 6.4z" fill="url(#SVGID_14_)"/><path class="st13" d="M74.7 102v-8l22 8z"/><linearGradient id="SVGID_15_" gradientUnits="userSpaceOnUse" x1="52.69" y1="845.318" x2="62.689" y2="845.318" gradientTransform="translate(0 -708)"><stop offset="0" stop-color="#ec008c"/><stop offset="1" stop-color="#ed1c2b"/></linearGradient><path d="M52.7 134h9.7c1.3 0-2.2 8.4-7.1 6.3 0 0-2.6-.5-2.6-6.3z" fill="url(#SVGID_15_)"/><linearGradient id="SVGID_16_" gradientUnits="userSpaceOnUse" x1="54.321" y1="838.342" x2="55.641" y2="844.002" gradientTransform="translate(0 -708)"><stop offset="0" stop-color="#ec008c"/><stop offset="1" stop-color="#940610"/></linearGradient><path d="M57.7 135h-4.9c-.7 0 1.1-6.3 3.5-4.8.1 0 1.4.4 1.4 4.8z" fill="url(#SVGID_16_)"/><linearGradient id="SVGID_17_" gradientUnits="userSpaceOnUse" x1="59.064" y1="837.231" x2="60.384" y2="842.902" gradientTransform="translate(0 -708)"><stop offset="0" stop-color="#ec008c"/><stop offset="1" stop-color="#940610"/></linearGradient><path d="M62.7 135h-4.9c-.7 0 1.1-6.3 3.5-4.8.1 0 1.4.4 1.4 4.8z" fill="url(#SVGID_17_)"/><defs><path id="SVGID_18_" d="M74.7 102v-8l22 8z"/></defs><clipPath id="SVGID_19_"><use xlink:href="#SVGID_18_" overflow="visible"/></clipPath><g clip-path="url(#SVGID_19_)"><circle class="st18" cx="76.2" cy="99.5" r="6.5"/></g><path class="st13" d="M43.7 102v-8l13 8z"/><defs><path id="SVGID_20_" d="M43.7 102v-8l13 8z"/></defs><clipPath id="SVGID_21_"><use xlink:href="#SVGID_20_" overflow="visible"/></clipPath><g clip-path="url(#SVGID_21_)"><circle class="st18" cx="45.7" cy="100" r="6"/></g><linearGradient id="SVGID_22_" gradientUnits="userSpaceOnUse" x1="53.7" y1="825.5" x2="69.7" y2="825.5" gradientTransform="translate(0 -708)"><stop offset=".62" stop-color="#f47b61"/><stop offset="1" stop-color="#f47960"/></linearGradient><path fill="url(#SVGID_22_)" d="M56.1 119l-2.4-4h6.1l9.9 5z"/><linearGradient id="SVGID_23_" gradientUnits="userSpaceOnUse" x1="127.57" y1="826.128" x2="129.83" y2="835.872" gradientTransform="translate(0 -708)"><stop offset="0" stop-color="#f9ed23"/><stop offset="1" stop-color="#fff"/></linearGradient><circle cx="128.7" cy="123" r="5" fill="url(#SVGID_23_)"/><linearGradient id="SVGID_24_" gradientUnits="userSpaceOnUse" x1="-1965.323" y1="1693.687" x2="-1963.502" y2="1701.478" gradientTransform="rotate(-69.689 -2036.84 -524.012)"><stop offset="0" stop-color="#f9ed23"/><stop offset="1" stop-color="#fff"/></linearGradient><circle cx="71.8" cy="179.2" r="4" fill="url(#SVGID_24_)"/><linearGradient id="SVGID_25_" gradientUnits="userSpaceOnUse" x1="-1967.924" y1="1701.048" x2="-1966.115" y2="1708.842" gradientTransform="rotate(-69.689 -2036.84 -524.012)"><stop offset="0" stop-color="#f9ed23"/><stop offset="1" stop-color="#fff"/></linearGradient><circle cx="77.8" cy="184.2" r="4" fill="url(#SVGID_25_)"/><linearGradient id="SVGID_26_" gradientUnits="userSpaceOnUse" x1="-1968.312" y1="1708.656" x2="-1966.492" y2="1716.456" gradientTransform="rotate(-69.689 -2036.84 -524.012)"><stop offset="0" stop-color="#f9ed23"/><stop offset="1" stop-color="#fff"/></linearGradient><circle cx="84.8" cy="187.2" r="4" fill="url(#SVGID_26_)"/><linearGradient id="SVGID_27_" gradientUnits="userSpaceOnUse" x1="-1966.819" y1="1715.578" x2="-1964.998" y2="1723.369" gradientTransform="rotate(-69.689 -2036.84 -524.012)"><stop offset="0" stop-color="#f9ed23"/><stop offset="1" stop-color="#fff"/></linearGradient><circle cx="91.8" cy="188.2" r="4" fill="url(#SVGID_27_)"/><linearGradient id="SVGID_28_" gradientUnits="userSpaceOnUse" x1="-1964.98" y1="1723.428" x2="-1963.159" y2="1731.219" gradientTransform="rotate(-69.689 -2036.84 -524.012)"><stop offset="0" stop-color="#f9ed23"/><stop offset="1" stop-color="#fff"/></linearGradient><circle cx="99.8" cy="189.2" r="4" fill="url(#SVGID_28_)"/><linearGradient id="SVGID_29_" gradientUnits="userSpaceOnUse" x1="-1962.549" y1="1729.992" x2="-1960.729" y2="1737.792" gradientTransform="rotate(-69.689 -2036.84 -524.012)"><stop offset="0" stop-color="#f9ed23"/><stop offset="1" stop-color="#fff"/></linearGradient><circle cx="106.8" cy="189.2" r="4" fill="url(#SVGID_29_)"/><linearGradient id="SVGID_30_" gradientUnits="userSpaceOnUse" x1="-1956.71" y1="1734.229" x2="-1954.901" y2="1742.024" gradientTransform="rotate(-69.689 -2036.84 -524.012)"><stop offset="0" stop-color="#f9ed23"/><stop offset="1" stop-color="#fff"/></linearGradient><circle cx="112.8" cy="185.2" r="4" fill="url(#SVGID_30_)"/></g></svg>