<svg xmlns="http://www.w3.org/2000/svg" xmlns:xlink="http://www.w3.org/1999/xlink" viewBox="0 0 225.7 225.7"><style>.st7{fill:#fff}.st9{fill:#332323}</style><defs><path id="SVGID_1_" d="M0 0h225.7v225.7H0z"/></defs><clipPath id="SVGID_2_"><use xlink:href="#SVGID_1_" overflow="visible"/></clipPath><g clip-path="url(#SVGID_2_)"><linearGradient id="SVGID_3_" gradientUnits="userSpaceOnUse" x1="161.829" y1="-213.581" x2="680.329" y2="159.569" gradientTransform="rotate(180 223.515 114)"><stop offset="0" stop-color="#00addd"/><stop offset="1" stop-color="#8873b4"/></linearGradient><path d="M45 170c87-1.4 183.1 22.9 183.1 22.9 26 151.4 4.5 326 4.5 326-67.4 17.7-143.4-10.8-143.4-10.8C78 444.8 25.7 266.7 25.7 266.7c-42.5-5.3-77.6-17.5-106.4-33.8 22-25.5 32.4-58 36.9-77.2C-13 165.4 18.1 170.5 45 170z" fill="url(#SVGID_3_)"/><linearGradient id="SVGID_4_" gradientUnits="userSpaceOnUse" x1="490.813" y1="93.928" x2="659.183" y2="93.928" gradientTransform="rotate(180 223.515 114)"><stop offset="0" stop-color="#f7b777"/><stop offset="1" stop-color="#f47960"/></linearGradient><path d="M-212.2 41.8c8.5-10.3 19.4-5.5 19.4-5.5 12.8 54.1 80 98 149 119.4-4.5 19.2-14.9 51.6-36.9 77.1-114.5-64.2-131.5-191-131.5-191z" fill="url(#SVGID_4_)"/><linearGradient id="SVGID_5_" gradientUnits="userSpaceOnUse" x1="299.734" y1="64.644" x2="370.283" y2="64.644" gradientTransform="rotate(180 223.515 114)"><stop offset="0" stop-color="#70442d"/><stop offset="1" stop-color="#5b2516"/></linearGradient><path d="M124 132.4l23.2 54.7c.4.9-.1 2-1.1 2.4-6.3 2.9-29.1 11.1-56.6-3.1-2.7-1.2-4.6-3.7-5.2-6.6l-7.5-47.3H124z" fill="url(#SVGID_5_)"/><linearGradient id="SVGID_6_" gradientUnits="userSpaceOnUse" x1="-6299.929" y1="2478.834" x2="-6331.398" y2="2582.644" gradientTransform="rotate(-138.2 -3567.033 80.036)"><stop offset="0" stop-color="#70442d"/><stop offset="1" stop-color="#5b2516"/></linearGradient><path d="M72.8 58.2s-30.4 57.2-26.5 80.4 41.6 21.5 74.5 2.7l23-61.8-71-21.3z" fill="url(#SVGID_6_)"/><linearGradient id="SVGID_7_" gradientUnits="userSpaceOnUse" x1="-6325.366" y1="2656.514" x2="-6299.036" y2="2506.344" gradientTransform="rotate(-138.2 -3567.033 80.036)"><stop offset="0" stop-color="#fff200"/><stop offset=".75" stop-color="#d36b27"/></linearGradient><path d="M119.4 110.9c-1.2-.5-1.7-1.9-1.2-3.1.1-.1.1-.2.2-.3 2.4-3.7 7-11.3 8.5-18 0 0 5.5-3.5-13.9-8.1S64.6 69.5 58.5 53C52.6 36.9 68.2-3.5 93 28.7c.8 1 2.3 1.2 3.3.4.2-.1.3-.3.4-.4 4.1-5.3 14.8-16.3 29.6-9.6 13.9 6.3 15.5 16.4 15.3 21.6 0 1.3 1 2.4 2.3 2.4h.5c7-1.3 23.9-2.5 31.8 14.8 6.5 14.3 2.3 22.3-1.6 26.3-.9.9-.9 2.4 0 3.3.3.3.6.5 1 .6 4.6 1.4 10.6 5.3 10 16.2-.8 15-17.6 13.7-22.3 13-.8-.1-1.6.2-2.1.7-4.1 4.5-22.5 23.7-42.4 26-1.3.1-2.5-.8-2.6-2.1 0-.4 0-.7.1-1l8.6-25.1c.4-1.2-.2-2.4-1.3-2.9l-4.2-2z" fill="url(#SVGID_7_)"/><linearGradient id="SVGID_8_" gradientUnits="userSpaceOnUse" x1="-6331.933" y1="2479.365" x2="-6360.253" y2="2572.775" gradientTransform="rotate(-138.2 -3567.033 80.036)"><stop offset="0" stop-color="#70442d"/><stop offset="1" stop-color="#5b2516"/></linearGradient><path d="M115.9 114.4s21.7-14.9 23.2-2.3-19.5 18.1-29.9 13.5l6.7-11.2z" fill="url(#SVGID_8_)"/><path class="st7" d="M82 97.4l1.4-7.9 20.2 11.8zm-26.3 21.7l21.6 3.9c3 .5-7.8 14.9-17.9 9 .1-.1-5.7-2.1-3.7-12.9z"/><defs><path id="SVGID_9_" d="M82 97.4l1.4-7.9 20.2 11.8z"/></defs><clipPath id="SVGID_10_"><use xlink:href="#SVGID_9_" overflow="visible"/></clipPath><g clip-path="url(#SVGID_10_)"><circle class="st9" cx="83.9" cy="95.2" r="6.5"/></g><path class="st7" d="M51.5 91.9l1.4-7.9 11.4 10.2z"/><defs><path id="SVGID_11_" d="M51.5 91.9l1.4-7.9 11.4 10.2z"/></defs><clipPath id="SVGID_12_"><use xlink:href="#SVGID_11_" overflow="visible"/></clipPath><g clip-path="url(#SVGID_12_)"><circle class="st9" cx="53.8" cy="90.3" r="6"/></g><linearGradient id="SVGID_13_" gradientUnits="userSpaceOnUse" x1="295.793" y1="133.837" x2="311.8" y2="133.837" gradientTransform="scale(1 -1) rotate(-10.259 -1174.9 1333.94)"><stop offset=".62" stop-color="#231f20"/><stop offset="1" stop-color="#4f1c0c"/></linearGradient><path fill="url(#SVGID_13_)" d="M60.7 110.8l-1.7-4.3 6 1 8.8 6.7z"/></g></svg>